<?xml version="1.0" encoding="UTF-8" standalone="no"?>
<svg
   xmlns:dc="http://purl.org/dc/elements/1.1/"
   xmlns:cc="http://creativecommons.org/ns#"
   xmlns:rdf="http://www.w3.org/1999/02/22-rdf-syntax-ns#"
   xmlns:svg="http://www.w3.org/2000/svg"
   xmlns="http://www.w3.org/2000/svg"
   xmlns:sodipodi="http://sodipodi.sourceforge.net/DTD/sodipodi-0.dtd"
   xmlns:inkscape="http://www.inkscape.org/namespaces/inkscape"
   width="300.00009"
   height="300.00009"
   id="svg2"
   version="1.1"
   inkscape:version="0.91 r13725"
   sodipodi:docname="mine.svg">
  <metadata
     id="metadata31">
    <rdf:RDF>
      <cc:Work
         rdf:about="">
        <dc:format>image/svg+xml</dc:format>
        <dc:type
           rdf:resource="http://purl.org/dc/dcmitype/StillImage" />
        <dc:title></dc:title>
      </cc:Work>
    </rdf:RDF>
  </metadata>
  <defs
     id="defs29" />
  <sodipodi:namedview
     pagecolor="#ffffff"
     bordercolor="#666666"
     borderopacity="1"
     objecttolerance="10"
     gridtolerance="10"
     guidetolerance="10"
     inkscape:pageopacity="0"
     inkscape:pageshadow="2"
     inkscape:window-width="640"
     inkscape:window-height="480"
     id="namedview27"
     showgrid="false"
     fit-margin-top="0"
     fit-margin-left="0"
     fit-margin-right="0"
     fit-margin-bottom="0"
     inkscape:zoom="0.53274214"
     inkscape:cx="204.685"
     inkscape:cy="123.62212"
     inkscape:window-x="65"
     inkscape:window-y="24"
     inkscape:window-maximized="0"
     inkscape:current-layer="svg2" />
  <g
     id="g4"
     transform="translate(-75.000031,-22.047223)">
    <title
       id="title6">Layer 1</title>
    <g
       externalResourcesRequired="false"
       id="layer1">
      <path
         d="m 298.94229,303.73535 -47.72655,-60.87115 3.41372,77.2753 -26.58045,-72.64023 -20.63273,74.54803 -2.83245,-77.29875 -42.6595,64.52352 21.19283,-74.39074 -60.51048,48.183 43.14356,-64.20085 -72.438243,27.12599 60.871143,-47.72654 -77.275256,3.41371 72.640186,-26.58045 -74.548039,-20.63273 77.298749,-2.83244 -64.523526,-42.65952 74.390766,21.19283 -48.18303,-60.510465 64.20086,43.143575 -27.12599,-72.438256 47.72655,60.871126 -3.41371,-77.275267 26.58044,72.640228 20.63274,-74.548048 2.83244,77.29875 42.65951,-64.523521 -21.19281,74.390758 60.51047,-48.183036 -43.14358,64.200886 72.43823,-27.126007 -60.87109,47.726557 77.27523,-3.41371 -72.64019,26.58044 74.54803,20.63274 -77.29877,2.83244 64.52353,42.6595 -74.39074,-21.1928 48.18301,60.51049 -64.20087,-43.1436 27.12601,72.43828 0,-4e-5 z"
         id="path1385"
         stroke-miterlimit="4"
         inkscape:connector-curvature="0"
         style="fill:#7f0000;fill-rule:nonzero;stroke-width:5;stroke-linecap:square;stroke-miterlimit:4" />
      <path
         d="m 349.98099,174.22929 a 125.00037,125.00012 0 1 1 0.019,-2.18156"
         id="path1383"
         stroke-miterlimit="4"
         inkscape:connector-curvature="0"
         style="fill:#ff7f00;fill-rule:evenodd;stroke-width:5;stroke-linecap:square;stroke-miterlimit:4" />
      <g
         id="g4026">
        <path
           d="m 150,97.047241 70,34.999999 c 0,0 -35.91681,32.0416 -60,20 -20,-10 -10,-54.999999 -10,-54.999999 z"
           id="path3135"
           inkscape:connector-curvature="0"
           style="fill:#ffffff;fill-rule:evenodd;stroke:#000000;stroke-width:1px" />
        <path
           d="m 170,107.04724 c 0,0 -5,17.09431 -5,25 0,15 15.25658,14.23026 20,0 5,-15 5,-15 5,-15 l -20,-10 z"
           id="path3151"
           inkscape:connector-curvature="0"
           style="fill:#000000;fill-rule:evenodd;stroke:#000000;stroke-width:1px" />
      </g>
      <g
         id="g4030"
         transform="matrix(-1,0,0,1,450,0.5)">
        <path
           d="m 150,97.047241 70,34.999999 c 0,0 -35.91681,32.0416 -60,20 -20,-10 -10,-54.999999 -10,-54.999999 z"
           id="path4032"
           inkscape:connector-curvature="0"
           style="fill:#ffffff;fill-rule:evenodd;stroke:#000000;stroke-width:1px" />
        <path
           d="m 170,107.04724 c 0,0 -5,17.09431 -5,25 0,15 15.25658,14.23026 20,0 5,-15 5,-15 5,-15 l -20,-10 z"
           id="path4034"
           inkscape:connector-curvature="0"
           style="fill:#000000;fill-rule:evenodd;stroke:#000000;stroke-width:1px" />
      </g>
      <path
         d="m 175,222.04724 c 0,0 25,-25 50,-25 25,0 50,25 50,25 0,0 -25,-10 -50,-10 -25,0 -50,10 -50,10 z"
         id="path4036"
         inkscape:connector-curvature="0"
         style="fill:#7f0000;fill-rule:evenodd;stroke:#000000;stroke-width:1px" />
      <path
         d="m 220,237.04724 5,55 5,-55 c 0,0 -2.5,-2.69823 -5,-2.69823 -2.5,0 -5,2.69823 -5,2.69823 z"
         id="path4911"
         inkscape:connector-curvature="0"
         style="fill:#7f0000;fill-rule:evenodd;stroke-width:1px" />
      <path
         d="m 285,215.95225 41.79895,36.09499 -34.6048,-43.04079 c 0,0 -3.48492,-0.28721 -5.28348,1.44924 C 285.11215,212.19214 285,215.95225 285,215.95225 Z"
         id="path5786"
         inkscape:connector-curvature="0"
         style="fill:#7f0000;fill-rule:evenodd;stroke-width:1px" />
      <path
         d="M 166.79896,213.99304 125,250.08801 159.6048,207.04724 c 0,0 3.48494,0.0501 5.28347,1.78652 1.79854,1.73645 1.91069,5.15928 1.91069,5.15928 z"
         id="path5788"
         inkscape:connector-curvature="0"
         style="fill:#7f0000;fill-rule:evenodd;stroke-width:1px" />
      <path
         d="M 192.19415,98.574341 148.20103,62.047241 185,105.52014 c 0,0 3.20146,-1.73645 5,-3.4729 1.79854,-1.73645 2.19415,-3.472899 2.19415,-3.472899 z"
         id="path5790"
         inkscape:connector-curvature="0"
         style="fill:#ff7f00;fill-rule:evenodd;stroke-width:1px" />
      <path
         d="M 258.20105,98.14222 300,62.047242 265.3952,105.08802 c 0,0 -3.59665,-1.30433 -5.3952,-3.04078 -1.79855,-1.73645 -1.79895,-3.90502 -1.79895,-3.90502 z"
         id="path5792"
         inkscape:connector-curvature="0"
         style="fill:#7f0000;fill-rule:evenodd;stroke-width:1px" />
      <path
         d="m 140,167.04724 -55,5 55,5 c 0,0 2.36095,-2.5 2.36095,-5 0,-2.5 -2.36095,-5 -2.36095,-5 z"
         id="path5794"
         inkscape:connector-curvature="0"
         style="fill:#7f0000;fill-rule:evenodd;stroke-width:1px" />
      <path
         d="m 300,167.04724 55,5 -55,5 c 0,0 -2.02368,-2.83728 -2.02368,-5.33728 0,-2.5 2.02368,-4.66272 2.02368,-4.66272 z"
         id="path5796"
         inkscape:connector-curvature="0"
         style="fill:#7f0000;fill-rule:evenodd;stroke-width:1px" />
      <path
         d="m 220,171.00394 -10.59995,11.0433 1.51935,-15.23172 c 0,0 3.19944,-0.96762 5.46959,0.0795 2.27014,1.04711 3.61101,4.10894 3.61101,4.10894 z"
         id="path5798"
         inkscape:connector-curvature="0"
         style="fill:#000000;fill-rule:evenodd;stroke-width:1px" />
      <path
         d="m 238.91402,166.88464 2.09993,15.1626 L 230,171.41676 c 0,0 1.22296,-3.11078 3.45146,-4.24382 2.22852,-1.13302 5.46256,-0.2883 5.46256,-0.2883 z"
         id="path5836"
         inkscape:connector-curvature="0"
         style="fill:#000000;fill-rule:evenodd;stroke-width:1px" />
    </g>
  </g>
</svg>
